<svg width="32" height="27" viewBox="0 0 32 27" fill="none" xmlns="http://www.w3.org/2000/svg">
<g id="icn resize .icn-md" clip-path="url(#clip0_1479_22129)">
<path id="vector" d="M26.1818 13.1765H23.2727V17.5686H18.9091V20.4967H26.1818V13.1765ZM8.72727 8.78432H13.0909V5.85621H5.81818V13.1765H8.72727V8.78432ZM29.0909 0H2.90909C2.13755 0 1.39761 0.308496 0.852053 0.857622C0.306493 1.40675 0 2.15152 0 2.92811V23.4249C0 24.2014 0.306493 24.9462 0.852053 25.4953C1.39761 26.0445 2.13755 26.353 2.90909 26.353H29.0909C29.8624 26.353 30.6024 26.0445 31.1479 25.4953C31.6935 24.9462 32 24.2014 32 23.4249V2.92811C32 2.15152 31.6935 1.40675 31.1479 0.857622C30.6024 0.308496 29.8624 0 29.0909 0ZM29.0909 23.4249H2.90909V2.92811H29.0909V23.4249Z" fill="white"/>
</g>
<defs>
<clipPath id="clip0_1479_22129">
<rect width="32" height="26.353" fill="white"/>
</clipPath>
</defs>
</svg>
